# Blender 4.5.3 LTS
# www.blender.org
mtllib 5.mtl
o 柱体.001
v 10.329014 0.687900 9.219490
v 10.329014 0.688972 10.679332
v 10.296684 0.684716 9.219492
v 10.296684 0.685788 10.679334
v 10.265596 0.675285 9.219499
v 10.265596 0.676358 10.679341
v 10.236946 0.661044 10.679352
v 10.211834 0.640435 10.679367
v 10.191225 0.614250 9.219543
v 10.191225 0.615322 10.679386
v 10.175911 0.585600 9.219565
v 10.175911 0.586672 10.679407
v 10.166481 0.554512 9.219587
v 10.166481 0.555585 10.679430
v 10.163297 0.522183 9.219611
v 10.163297 0.523255 10.679454
v 10.166481 0.489853 9.219635
v 10.166481 0.490925 10.679478
v 10.175911 0.458765 9.219658
v 10.175911 0.459838 10.679500
v 10.191225 0.430115 9.219679
v 10.191225 0.431187 10.679522
v 10.211834 0.405003 9.219698
v 10.211834 0.406075 10.679540
v 10.236946 0.384394 9.219713
v 10.236946 0.385466 10.679555
v 10.265596 0.369080 9.219724
v 10.265596 0.370152 10.679566
v 10.296684 0.359649 9.219731
v 10.296684 0.360722 10.679573
v 10.329014 0.356465 9.219733
v 10.329014 0.357538 10.679575
v 10.361343 0.359649 9.219731
v 10.361343 0.360722 10.679573
v 10.392431 0.369080 9.219724
v 10.392431 0.370152 10.679566
v 10.421082 0.385466 10.679555
v 10.446194 0.406075 10.679540
v 10.466803 0.430115 9.219679
v 10.466803 0.431187 10.679522
v 10.482117 0.458765 9.219658
v 10.482117 0.459838 10.679500
v 10.491547 0.489853 9.219635
v 10.491547 0.490925 10.679478
v 10.494731 0.522183 9.219611
v 10.494731 0.523255 10.679454
v 10.491547 0.554512 9.219587
v 10.491547 0.555585 10.679430
v 10.482117 0.585600 9.219565
v 10.482117 0.586672 10.679407
v 10.466803 0.614250 9.219543
v 10.466803 0.615322 10.679386
v 10.446194 0.639362 9.219525
v 10.446194 0.640435 10.679367
v 10.421082 0.659972 9.219510
v 10.421082 0.661044 10.679352
v 10.392431 0.675285 9.219499
v 10.392431 0.676358 10.679341
v 10.361343 0.684716 9.219492
v 10.361343 0.685788 10.679334
v 10.244486 0.664001 9.219507
v 10.244462 0.664029 9.273890
v 10.236946 0.660011 9.273890
v 10.211834 0.639402 9.273890
v 10.196301 0.620475 9.273890
v 10.196317 0.620455 9.219540
v 10.404928 0.375799 9.273890
v 10.404952 0.375772 9.219719
v 10.421082 0.384433 9.273890
v 10.446194 0.405043 9.273890
v 10.455577 0.416437 9.219689
v 10.455561 0.416456 9.273890
vn -0.0980 0.9952 -0.0007
vn -0.2903 0.9569 -0.0007
vn -0.4714 0.8819 -0.0006
vn -0.6344 0.7730 -0.0006
vn -0.7730 0.6344 -0.0005
vn -0.8819 0.4714 -0.0003
vn -0.9569 0.2903 -0.0002
vn -0.9952 0.0980 -0.0001
vn -0.9952 -0.0980 0.0001
vn -0.9569 -0.2903 0.0002
vn -0.8819 -0.4714 0.0003
vn -0.7730 -0.6344 0.0005
vn -0.6344 -0.7730 0.0006
vn -0.4714 -0.8819 0.0006
vn -0.2903 -0.9569 0.0007
vn -0.0980 -0.9952 0.0007
vn 0.0980 -0.9952 0.0007
vn 0.2903 -0.9569 0.0007
vn 0.4714 -0.8819 0.0006
vn 0.6344 -0.7730 0.0006
vn 0.7730 -0.6344 0.0005
vn 0.8819 -0.4714 0.0003
vn 0.9569 -0.2903 0.0002
vn 0.9952 -0.0980 0.0001
vn 0.9952 0.0980 -0.0001
vn 0.9569 0.2903 -0.0002
vn 0.8819 0.4714 -0.0003
vn 0.7730 0.6344 -0.0005
vn 0.6344 0.7730 -0.0006
vn 0.4714 0.8819 -0.0006
vn -0.0000 0.0007 1.0000
vn 0.2903 0.9569 -0.0007
vn 0.0980 0.9952 -0.0007
vn -0.0000 -0.0007 -1.0000
vn -0.0000 -0.0000 -1.0000
vn 0.7609 0.6488 -0.0000
vn -0.7609 -0.6488 -0.0000
vt 1.000000 0.500000
vt 1.000000 1.000000
vt 0.968750 1.000000
vt 0.968750 0.500000
vt 0.937500 1.000000
vt 0.937500 0.500000
vt 0.906250 1.000000
vt 0.906250 0.518625
vt 0.914448 0.518626
vt 0.914474 0.500000
vt 0.875000 1.000000
vt 0.875000 0.518620
vt 0.843750 1.000000
vt 0.843750 0.500000
vt 0.851471 0.500000
vt 0.851446 0.518615
vt 0.812500 1.000000
vt 0.812500 0.500000
vt 0.781250 1.000000
vt 0.781250 0.500000
vt 0.750000 1.000000
vt 0.750000 0.500000
vt 0.718750 1.000000
vt 0.718750 0.500000
vt 0.687500 1.000000
vt 0.687500 0.500000
vt 0.656250 1.000000
vt 0.656250 0.500000
vt 0.625000 1.000000
vt 0.625000 0.500000
vt 0.593750 1.000000
vt 0.593750 0.500000
vt 0.562500 1.000000
vt 0.562500 0.500000
vt 0.531250 1.000000
vt 0.531250 0.500000
vt 0.500000 1.000000
vt 0.500000 0.500000
vt 0.468750 1.000000
vt 0.468750 0.500000
vt 0.437500 1.000000
vt 0.437500 0.500000
vt 0.423869 0.518553
vt 0.423843 0.500000
vt 0.406250 1.000000
vt 0.406250 0.518556
vt 0.375000 1.000000
vt 0.375000 0.518561
vt 0.343750 1.000000
vt 0.343750 0.500000
vt 0.360771 0.500000
vt 0.360797 0.518564
vt 0.312500 1.000000
vt 0.312500 0.500000
vt 0.281250 1.000000
vt 0.281250 0.500000
vt 0.250000 1.000000
vt 0.250000 0.500000
vt 0.218750 1.000000
vt 0.218750 0.500000
vt 0.187500 1.000000
vt 0.187500 0.500000
vt 0.156250 1.000000
vt 0.156250 0.500000
vt 0.125000 1.000000
vt 0.125000 0.500000
vt 0.093750 1.000000
vt 0.093750 0.500000
vt 0.062500 1.000000
vt 0.062500 0.500000
vt 0.419706 0.419706
vt 0.383337 0.449553
vt 0.341844 0.471731
vt 0.296822 0.485388
vt 0.250000 0.490000
vt 0.203178 0.485388
vt 0.158156 0.471731
vt 0.116663 0.449553
vt 0.080294 0.419706
vt 0.050447 0.383337
vt 0.028269 0.341844
vt 0.014612 0.296822
vt 0.010000 0.250000
vt 0.014612 0.203178
vt 0.028269 0.158156
vt 0.050447 0.116663
vt 0.080294 0.080294
vt 0.116663 0.050447
vt 0.158156 0.028269
vt 0.203178 0.014612
vt 0.250000 0.010000
vt 0.296822 0.014612
vt 0.341844 0.028269
vt 0.383337 0.050447
vt 0.419706 0.080294
vt 0.449553 0.116663
vt 0.471731 0.158156
vt 0.485388 0.203178
vt 0.490000 0.250000
vt 0.485388 0.296822
vt 0.471731 0.341844
vt 0.449553 0.383337
vt 0.031250 1.000000
vt 0.031250 0.500000
vt 0.000000 1.000000
vt 0.000000 0.500000
vt 0.942178 0.392323
vt 0.949553 0.383337
vt 0.971731 0.341844
vt 0.985388 0.296822
vt 0.990000 0.250000
vt 0.985388 0.203178
vt 0.971731 0.158156
vt 0.949553 0.116663
vt 0.919706 0.080294
vt 0.883337 0.050447
vt 0.841844 0.028269
vt 0.796822 0.014612
vt 0.750000 0.010000
vt 0.703178 0.014612
vt 0.658156 0.028269
vt 0.640023 0.037961
vt 0.550447 0.116663
vt 0.528269 0.158156
vt 0.514612 0.203178
vt 0.510000 0.250000
vt 0.514612 0.296822
vt 0.528269 0.341844
vt 0.550447 0.383337
vt 0.580294 0.419706
vt 0.616663 0.449553
vt 0.658156 0.471731
vt 0.703178 0.485388
vt 0.750000 0.490000
vt 0.796822 0.485388
vt 0.841844 0.471731
vt 0.872418 0.455389
vt 0.566705 0.096854
vt 0.625000 0.868376
vt 0.625000 0.896052
vt 0.592942 0.896207
vt 0.467829 0.896259
vt 0.375000 0.895891
vt 0.375000 0.868539
vt 0.443992 0.868208
vt 0.568957 0.868152
vt 0.256464 0.703908
vt 0.256461 0.750000
vt 0.229109 0.750000
vt 0.229111 0.703759
vt 0.771049 0.703725
vt 0.771052 0.750000
vt 0.743376 0.750000
vt 0.743374 0.703880
s 0
usemtl Degradable_Metal
f 1/1/1 3/4/1 4/3/1 2/2/1
f 3/4/2 5/6/2 6/5/2 4/3/2
f 5/6/3 61/10/3 62/9/3 63/8/3 7/7/3 6/5/3
f 63/8/4 64/12/4 8/11/4 7/7/4
f 64/12/5 65/16/5 66/15/5 9/14/5 10/13/5 8/11/5
f 9/14/6 11/18/6 12/17/6 10/13/6
f 11/18/7 13/20/7 14/19/7 12/17/7
f 13/20/8 15/22/8 16/21/8 14/19/8
f 15/22/9 17/24/9 18/23/9 16/21/9
f 17/24/10 19/26/10 20/25/10 18/23/10
f 19/26/11 21/28/11 22/27/11 20/25/11
f 21/28/12 23/30/12 24/29/12 22/27/12
f 23/30/13 25/32/13 26/31/13 24/29/13
f 25/32/14 27/34/14 28/33/14 26/31/14
f 27/34/15 29/36/15 30/35/15 28/33/15
f 29/36/16 31/38/16 32/37/16 30/35/16
f 31/38/17 33/40/17 34/39/17 32/37/17
f 33/40/18 35/42/18 36/41/18 34/39/18
f 67/43/19 69/46/19 37/45/19 36/41/19 35/42/19 68/44/19
f 69/46/20 70/48/20 38/47/20 37/45/20
f 70/48/21 72/52/21 71/51/21 39/50/21 40/49/21 38/47/21
f 39/50/22 41/54/22 42/53/22 40/49/22
f 41/54/23 43/56/23 44/55/23 42/53/23
f 43/56/24 45/58/24 46/57/24 44/55/24
f 45/58/25 47/60/25 48/59/25 46/57/25
f 47/60/26 49/62/26 50/61/26 48/59/26
f 49/62/27 51/64/27 52/63/27 50/61/27
f 51/64/28 53/66/28 54/65/28 52/63/28
f 53/66/29 55/68/29 56/67/29 54/65/29
f 55/68/30 57/70/30 58/69/30 56/67/30
f 8/71/31 10/102/31 12/101/31 14/100/31 16/99/31 18/98/31 20/97/31 22/96/31 24/95/31 26/94/31 28/93/31 30/92/31 32/91/31 34/90/31 36/89/31 37/88/31 38/87/31 40/86/31 42/85/31 44/84/31 46/83/31 48/82/31 50/81/31 52/80/31 54/79/31 56/78/31 58/77/31 60/76/31 2/75/31 4/74/31 6/73/31 7/72/31
f 57/70/32 59/104/32 60/103/32 58/69/32
f 59/104/33 1/106/33 2/105/33 60/103/33
f 66/107/34 68/122/34 35/121/34 33/120/34 31/119/34 29/118/34 27/117/34 25/116/34 23/115/34 21/114/34 19/113/34 17/112/34 15/111/34 13/110/34 11/109/34 9/108/34
f 39/123/34 71/138/34 61/137/34 5/136/34 3/135/34 1/134/34 59/133/34 57/132/34 55/131/34 53/130/34 51/129/34 49/128/34 47/127/34 45/126/34 43/125/34 41/124/34
f 72/139/35 70/146/35 69/145/35 67/144/35 65/143/35 64/142/35 63/141/35 62/140/35
f 68/147/36 66/150/36 65/149/36 67/148/36
f 61/151/37 71/154/37 72/153/37 62/152/37
